<svg xmlns="http://www.w3.org/2000/svg" xmlns:xlink="http://www.w3.org/1999/xlink" id="Layer_1" x="0" y="0" version="1.1" viewBox="0 0 1300 459.5" xml:space="preserve" style="enable-background:new 0 0 1300 459.5"><style type="text/css">.st0{fill:#f0f0f0}.st1,.st2{fill:none;stroke:#888;stroke-width:2;stroke-miterlimit:10}.st2{fill:#fff;stroke:#001e64}.st3{fill:#001e64}.st4{font-family:&apos;Rubik-Medium&apos;}.st5{font-size:24px}.st6{fill:#fff}.st7{fill:#0185fd;stroke:#001e64;stroke-miterlimit:10}.st7,.st8{stroke-width:2}.st8,.st9{stroke:#001e64;stroke-miterlimit:10}.st8,.st9{fill:none}.st9{stroke-width:6}.st10{font-size:15px}.st11{font-size:13px}.st12{fill:#888}.st13{fill:#e3f2fe}.st14{fill:#2beda7}.st15{fill:#0185fd}.st16{font-family:&apos;RobotoMono-Medium&apos;}.st17{font-size:14px}</style><g><path d="M583.9,49H184.3c-5.5,0-10,4.5-10,10v372.5c0,5.5,4.5,10,10,10h399.6c5.5,0,10-4.5,10-10V59 C593.9,53.5,589.4,49,583.9,49z" class="st0"/><path d="M583.9,49H184.3c-5.5,0-10,4.5-10,10v372.5c0,5.5,4.5,10,10,10h399.6c5.5,0,10-4.5,10-10V59 C593.9,53.5,589.4,49,583.9,49z" class="st1"/></g><path d="M563.9,89v30c0,5.5-4.5,10-10,10H212.2c-5.5,0-10-4.5-10-10V89c0-5.5,4.5-10,10-10h341.8	C559.4,79,563.9,83.5,563.9,89z" class="st2"/><g><text class="st3 st4 st5" transform="matrix(1 0 0 1 253.7113 110.8158)">Multi-Cluster Gateway</text></g><g><path d="M1115.7,169H716.1c-5.5,0-10,4.5-10,10v252.5c0,5.5,4.5,10,10,10h399.6c5.5,0,10-4.5,10-10V179 C1125.7,173.5,1121.2,169,1115.7,169z" class="st0"/><path d="M1115.7,169H716.1c-5.5,0-10,4.5-10,10v252.5c0,5.5,4.5,10,10,10h399.6c5.5,0,10-4.5,10-10V179 C1125.7,173.5,1121.2,169,1115.7,169z" class="st1"/></g><path d="M1099.5,204v30c0,5.5-4.5,10-10,10H747.8c-5.5,0-10-4.5-10-10v-30c0-5.5,4.5-10,10-10h341.8	C1095.1,194,1099.5,198.5,1099.5,204z" class="st2"/><g><text class="st3 st4 st5" transform="matrix(1 0 0 1 789.3314 225.8161)">Multi-Cluster Gateway</text></g><g><path d="M553.9,269H212.2c-5.5,0-10-4.5-10-10v-80c0-5.5,4.5-10,10-10h341.8c5.5,0,10,4.5,10,10v80 C563.9,264.5,559.4,269,553.9,269z" class="st6"/><path d="M553.9,269H212.2c-5.5,0-10-4.5-10-10v-80c0-5.5,4.5-10,10-10h341.8c5.5,0,10,4.5,10,10v80 C563.9,264.5,559.4,269,553.9,269z" class="st1"/></g><path d="M529.5,194v50c0,5.5-4.5,10-10,10H413c-5.5,0-10-4.5-10-10v-50c0-5.5,4.5-10,10-10h106.5	C525,184,529.5,188.5,529.5,194z" class="st2"/><text class="st3 st4 st5" transform="matrix(1 0 0 1 432.5287 225.8158)">Proxy</text><path d="M363,194v50c0,5.5-4.5,10-10,10H246.6c-5.5,0-10-4.5-10-10v-50c0-5.5,4.5-10,10-10H353	C358.6,184,363,188.5,363,194z" class="st7"/><g><text transform="matrix(1 0 0 1 256.3397 213.8158)"><tspan x="0" y="0" class="st6 st4 st5">Service</tspan><tspan x="35.1" y="24" class="st6 st4 st5">A</tspan></text></g><g><g><g><line x1="397.3" x2="363" y1="204.3" y2="204.3" class="st8"/><g><polygon points="396.1 200.3 403 204.3 396.1 208.3" class="st3"/></g></g></g><g><g><line x1="403" x2="368.8" y1="233.7" y2="233.7" class="st8"/><g><polygon points="369.9 229.7 363 233.7 369.9 237.7" class="st3"/></g></g></g></g><g><path d="M1089.5,411.5H747.8c-5.5,0-10-4.5-10-10v-80c0-5.5,4.5-10,10-10h341.8c5.5,0,10,4.5,10,10v80 C1099.5,407,1095.1,411.5,1089.5,411.5z" class="st6"/><path d="M1089.5,411.5H747.8c-5.5,0-10-4.5-10-10v-80c0-5.5,4.5-10,10-10h341.8c5.5,0,10,4.5,10,10v80 C1099.5,407,1095.1,411.5,1089.5,411.5z" class="st1"/></g><path d="M1065.1,336.5v50c0,5.5-4.5,10-10,10H948.7c-5.5,0-10-4.5-10-10v-50c0-5.5,4.5-10,10-10h106.5	C1060.6,326.5,1065.1,331,1065.1,336.5z" class="st2"/><text class="st3 st4 st5" transform="matrix(1 0 0 1 968.1488 368.2896)">Proxy</text><path d="M898.7,336.5v50c0,5.5-4.5,10-10,10H782.2c-5.5,0-10-4.5-10-10v-50c0-5.5,4.5-10,10-10h106.5	C894.2,326.5,898.7,331,898.7,336.5z" class="st7"/><g><text transform="matrix(1 0 0 1 791.9608 356.2896)"><tspan x="0" y="0" class="st6 st4 st5">Service</tspan><tspan x="35.3" y="24" class="st6 st4 st5">C</tspan></text></g><g><g><g><line x1="932.9" x2="898.7" y1="346.7" y2="346.7" class="st8"/><g><polygon points="931.7 342.8 938.7 346.7 931.7 350.7" class="st3"/></g></g></g><g><g><line x1="938.7" x2="904.4" y1="376.2" y2="376.2" class="st8"/><g><polygon points="905.6 372.2 898.7 376.2 905.6 380.2" class="st3"/></g></g></g></g><g><path d="M553.9,411.5H212.2c-5.5,0-10-4.5-10-10v-80c0-5.5,4.5-10,10-10h341.8c5.5,0,10,4.5,10,10v80 C563.9,407,559.4,411.5,553.9,411.5z" class="st6"/><path d="M553.9,411.5H212.2c-5.5,0-10-4.5-10-10v-80c0-5.5,4.5-10,10-10h341.8c5.5,0,10,4.5,10,10v80 C563.9,407,559.4,411.5,553.9,411.5z" class="st1"/></g><path d="M529.5,336.5v50c0,5.5-4.5,10-10,10H413c-5.5,0-10-4.5-10-10v-50c0-5.5,4.5-10,10-10h106.5	C525,326.5,529.5,331,529.5,336.5z" class="st2"/><text class="st3 st4 st5" transform="matrix(1 0 0 1 432.5287 368.2894)">Proxy</text><path d="M363,336.5v50c0,5.5-4.5,10-10,10H246.6c-5.5,0-10-4.5-10-10v-50c0-5.5,4.5-10,10-10H353	C358.6,326.5,363,331,363,336.5z" class="st7"/><g><text transform="matrix(1 0 0 1 256.3397 356.2895)"><tspan x="0" y="0" class="st6 st4 st5">Service</tspan><tspan x="35.2" y="24" class="st6 st4 st5">B</tspan></text></g><g><g><g><line x1="397.3" x2="363" y1="346.7" y2="346.7" class="st8"/><g><polygon points="396.1 342.8 403 346.7 396.1 350.7" class="st3"/></g></g></g><g><g><line x1="403" x2="368.8" y1="376.2" y2="376.2" class="st8"/><g><polygon points="369.9 372.2 363 376.2 369.9 380.2" class="st3"/></g></g></g></g><g><g><line x1="466.2" x2="466.2" y1="317.4" y2="254.8" class="st9"/><g><polygon points="472.2 315.6 466.2 326 460.2 315.6" class="st3"/></g></g></g><g><g><line x1="728.1" x2="530.9" y1="219" y2="219" class="st9"/><g><polygon points="726.3 213 736.7 219 726.3 225" class="st3"/></g></g></g><g><g><line x1="1001.9" x2="1001.9" y1="316.7" y2="244" class="st9"/><g><polygon points="1007.9 314.9 1001.9 325.3 995.9 314.9" class="st3"/></g></g></g><g><circle cx="649.4" cy="219" r="12.5" class="st3"/><path d="M653.4,215.7h-0.7v-1.3c0-1.8-1.5-3.3-3.3-3.3s-3.3,1.5-3.3,3.3v1.3h-0.7c-0.7,0-1.3,0.6-1.3,1.3v6.7 c0,0.7,0.6,1.3,1.3,1.3h8c0.7,0,1.3-0.6,1.3-1.3V217C654.7,216.3,654.1,215.7,653.4,215.7z M649.4,221.7c-0.7,0-1.3-0.6-1.3-1.3 c0-0.7,0.6-1.3,1.3-1.3s1.3,0.6,1.3,1.3C650.7,221.1,650.1,221.7,649.4,221.7z M651.4,215.7h-4.1v-1.3c0-1.1,0.9-2.1,2.1-2.1 s2.1,0.9,2.1,2.1V215.7z" class="st6"/></g><g><text class="st3 st4 st10" transform="matrix(1 0 0 1 407.218 294.9631)">mTLS</text></g><g><text class="st3 st4 st11" transform="matrix(1 0 0 1 631.6392 202.2743)">mTLS</text></g><g><text class="st3 st4 st10" transform="matrix(1 0 0 1 943.9755 279.7001)">mTLS</text></g><g><text class="st12 st4 st5" transform="matrix(1 0 0 1 174.5209 32.0002)">Cluster: west</text></g><g><text class="st12 st4 st5" transform="matrix(1 0 0 1 706.0775 151.9999)">Cluster: east</text></g><g><circle cx="466.2" cy="290.4" r="12.5" class="st3"/><path d="M470.2,287.1h-0.7v-1.3c0-1.8-1.5-3.3-3.3-3.3s-3.3,1.5-3.3,3.3v1.3h-0.7c-0.7,0-1.3,0.6-1.3,1.3v6.7 c0,0.7,0.6,1.3,1.3,1.3h8c0.7,0,1.3-0.6,1.3-1.3v-6.7C471.5,287.7,470.9,287.1,470.2,287.1z M466.2,293.1c-0.7,0-1.3-0.6-1.3-1.3 c0-0.7,0.6-1.3,1.3-1.3s1.3,0.6,1.3,1.3C467.5,292.5,466.9,293.1,466.2,293.1z M468.3,287.1h-4.1v-1.3c0-1.1,0.9-2.1,2.1-2.1 c1.1,0,2.1,0.9,2.1,2.1V287.1z" class="st6"/></g><g><circle cx="1001.9" cy="275.2" r="12.5" class="st3"/><path d="M1005.9,271.8h-0.7v-1.3c0-1.8-1.5-3.3-3.3-3.3c-1.8,0-3.3,1.5-3.3,3.3v1.3h-0.7c-0.7,0-1.3,0.6-1.3,1.3v6.7 c0,0.7,0.6,1.3,1.3,1.3h8c0.7,0,1.3-0.6,1.3-1.3v-6.7C1007.2,272.4,1006.6,271.8,1005.9,271.8z M1001.9,277.8 c-0.7,0-1.3-0.6-1.3-1.3c0-0.7,0.6-1.3,1.3-1.3s1.3,0.6,1.3,1.3C1003.2,277.2,1002.6,277.8,1001.9,277.8z M1004,271.8h-4.1v-1.3 c0-1.1,0.9-2.1,2.1-2.1c1.1,0,2.1,0.9,2.1,2.1V271.8z" class="st6"/></g><g><image style="overflow:visible;opacity:.22" width="160" height="45" transform="matrix(1 0 0 1 471 284.7)" xlink:href="28F01BEF.png"/><g><path d="M485.3,320.6c-5,0-9.1-4.1-9.1-9.1v-21.9H613c5,0,9.1,4.1,9.1,9.1v12.8c0,5-4.1,9.1-9.1,9.1H485.3z" class="st13"/><path d="M613,290.1c4.8,0,8.6,3.9,8.6,8.6v12.8c0,4.8-3.9,8.6-8.6,8.6H485.3c-4.8,0-8.6-3.9-8.6-8.6v-21.4H613 M613,289.1H476.6h-1v1v21.4c0,5.3,4.3,9.6,9.6,9.6H613c5.3,0,9.6-4.3,9.6-9.6v-12.8C622.6,293.4,618.3,289.1,613,289.1L613,289.1 z" class="st3"/></g></g><g><image style="overflow:visible;opacity:.11" width="264" height="59" transform="matrix(1 0 0 1 1006 270.7)" xlink:href="28F01BED.png"/><g><path d="M1020.5,320.6c-5,0-9.1-4.1-9.1-9.1v-36.1h240.5c5,0,9.1,4.1,9.1,9.1v27c0,5-4.1,9.1-9.1,9.1H1020.5z" class="st14"/><path d="M1251.9,275.8c4.8,0,8.6,3.9,8.6,8.6v27c0,4.8-3.9,8.6-8.6,8.6h-231.3c-4.8,0-8.6-3.9-8.6-8.6v-35.6H1251.9 M1251.9,274.8h-240h-1v1v35.6c0,5.3,4.3,9.6,9.6,9.6h231.3c5.3,0,9.6-4.3,9.6-9.6v-27C1261.5,279.1,1257.2,274.8,1251.9,274.8 L1251.9,274.8z" class="st3"/></g></g><g><image style="overflow:visible;opacity:.11" width="211" height="79" transform="matrix(1 0 0 1 642 224.7)" xlink:href="28F01BF3.png"/><g><path d="M656,294.6c-5,0-9.1-4.1-9.1-9.1v-56h188.2c5,0,9.1,4.1,9.1,9.1v46.9c0,5-4.1,9.1-9.1,9.1H656z" class="st14"/><path d="M835.1,229.9c4.8,0,8.6,3.9,8.6,8.6v46.9c0,4.8-3.9,8.6-8.6,8.6H656c-4.8,0-8.6-3.9-8.6-8.6v-55.5H835.1 M835.1,228.9H647.4h-1v1v55.5c0,5.3,4.3,9.6,9.6,9.6h179.1c5.3,0,9.6-4.3,9.6-9.6v-46.9C844.7,233.3,840.4,228.9,835.1,228.9 L835.1,228.9z" class="st3"/></g></g><g><text transform="matrix(1 0 0 1 485.6997 309.8025)"><tspan x="0" y="0" class="st15 st16 st17">A</tspan><tspan x="8.4" y="0" class="st3 st16 st17"> connects to </tspan><tspan x="117.6" y="0" class="st15 st16 st17">B</tspan></text></g><g><text transform="matrix(1 0 0 1 1022.9238 295.2105)"><tspan x="0" y="0" class="st3 st16 st17">Gateway automatically </tspan><tspan x="0" y="16" class="st3 st16 st17">establishes connection to </tspan><tspan x="218.4" y="16" class="st15 st16 st17">C</tspan></text></g><text transform="matrix(1 0 0 1 658.4934 251.4359)"><tspan x="0" y="0" class="st15 st16 st17">A </tspan><tspan x="16.8" y="0" class="st3 st16 st17">connects to </tspan><tspan x="117.6" y="0" class="st15 st16 st17">C.east</tspan><tspan x="168" y="0" class="st3 st16 st17">,</tspan><tspan x="0" y="16" class="st3 st16 st17">automatically routed </tspan><tspan x="0" y="32" class="st3 st16 st17">through the gateway</tspan></text></svg>