<svg xmlns="http://www.w3.org/2000/svg" xmlns:xlink="http://www.w3.org/1999/xlink" style="enable-background:new 0 0 512 512" x="0" y="0" version="1.1" viewBox="0 0 512 512" xml:space="preserve"><style type="text/css">.st2{fill:#fff}.st28{filter:url(#Adobe_OpacityMaskFilter)}.st30{fill:#018afd}.st32{fill:#06c0fd}.st33{fill:#03b5fd}.st34{fill:#0074fd}.st35{fill:#005cfd}.st38{fill:#0e13fd}.st50{fill:#0095fe}.st60{mask:url(#mask-4_3_);fill:#003cfd}</style><g id="Layer_1"><g id="Page-1_2_"><g id="working-state_2_" transform="translate(-109.000000, -9.000000)"><g id="buoyant_black_5_" transform="translate(109.000000, 9.000000)"><g id="angles_5_" transform="translate(0.000000, 0.734694)"><path id="Fill-16_7_" d="M289.8,328.4c0,28.8-0.1,57.7,0.1,86.5c0,3.9-1.1,6.2-4.6,8c-5.8,3-11.3,6.5-17,9.7 c-5.2,3-6.2,2.4-6.2-3.5c0-54.4,0-108.8,0-163.2c0-3.2,0-6.3-1-9.4c-1.5-4.4-4.7-7.3-8.6-9.5c-34.5-19.9-69-39.8-103.5-59.6 c-13.5-7.8-27.1-15.6-40.6-23.4c-4-2.3-4-3.7-0.1-6c6.5-3.8,13.1-7.5,19.6-11.3c1.9-1.1,3.5-1.2,5.6,0 c50.5,29.2,101,58.3,151.6,87.3c3.5,2,4.8,4.2,4.7,8.2C289.7,271,289.8,299.7,289.8,328.4" class="st30"/><path id="Fill-18_7_" d="M331.2,304.4c0,28.7-0.1,57.4,0.1,86.1c0,4.4-1.4,7-5.3,9c-6.1,3.1-11.9,6.8-17.9,10.2 c-3,1.7-4.4,1-4.5-2.5c-0.1-1.1,0-2.2,0-3.4c0-54.2-0.1-108.3,0.1-162.5c0-8.7-3.3-14.6-10.8-18.9 c-47.2-27.1-94.3-54.3-141.4-81.6c-1.6-0.9-4.3-1.2-4.2-3.8c0-2.5,2.7-2.8,4.3-3.8c6.1-3.6,12.3-7.1,18.4-10.7 c1.8-1.1,3.2-1,5,0c49.7,28.7,99.5,57.5,149.4,86c5.5,3.2,7.2,6.5,7.1,12.6c-0.4,27.7-0.2,55.4-0.2,83.1H331.2z" class="st50"/><path id="Fill-20_7_" d="M414.3,256.6c0,28.9,0,57.9,0,86.8c0,3.5-0.9,5.8-4.3,7.6c-6,3.1-11.7,6.7-17.6,10.1 c-1.4,0.8-2.9,2.3-4.6,1.3c-1.9-1.1-1.3-3.2-1.3-4.9c0-54.8-0.1-109.7,0-164.5c0-8.5-3.4-14.1-10.7-18.3 c-44.6-25.5-89.1-51.3-133.6-76.9c-3.4-2-6.8-3.9-10.2-5.9c-2.9-1.8-2.9-3.2-0.1-4.9c6.9-4,13.8-8,20.7-12.1 c1.8-1,3.2-0.9,5,0.1c51,29.4,102.1,58.9,153.2,88.2c2.5,1.4,3.4,3.1,3.4,5.9C414.2,198.3,414.3,227.4,414.3,256.6" class="st32"/><path id="Fill-22_7_" d="M372.8,280.5c0,28.9-0.1,57.9,0.1,86.8c0,3.8-1.2,6-4.5,7.7c-6.3,3.3-12.3,7-18.5,10.5 c-3.5,2-4.5,1.3-4.5-2.8c0-54.7-0.1-109.5,0.1-164.2c0-9.4-3.6-15.9-11.9-20.6c-47.4-27.1-94.6-54.4-141.9-81.6 c-4-2.3-4.1-4.1-0.1-6.3c6.6-3.8,13.3-7.6,19.9-11.4c1.8-1.1,3.2-0.9,5,0.1c47,27.2,94.1,54.3,141.2,81.5 c3.8,2.2,7.5,4.5,11.4,6.5c2.9,1.5,3.9,3.4,3.9,6.7C372.7,222.4,372.8,251.5,372.8,280.5" class="st33"/><path id="Fill-24_7_" d="M248.1,347.1v80.7c0,0.9,0,1.8,0,2.7c-0.1,4.2-1.2,4.8-4.9,2.7 c-6.4-3.7-12.8-7.5-19.3-11c-2.4-1.3-3.3-2.9-3.3-5.6c0.1-42.3,0-84.5,0.2-126.8c0-9.1-3.4-15.3-11.3-19.8 c-37.2-21.2-74.2-42.7-111.4-64c-1.5-0.9-1.9-1.8-1.9-3.4c0.1-8,0-16,0-24c0-4.1,1.3-4.8,4.9-2.8 c27.5,15.8,54.9,31.7,82.4,47.5c20.5,11.9,41,23.8,61.6,35.5c2.5,1.5,3,3.2,3,5.7C248.1,292.2,248.1,319.6,248.1,347.1" class="st34"/><path id="Fill-26_5_" d="M206.7,347.8c0,19.4,0,38.7,0,58.1c0,5.2-1,5.8-5.4,3.3c-6.3-3.6-12.6-7.5-19-10.9 c-2.6-1.4-3.4-3.1-3.4-5.9c0.1-26.3-0.1-52.7,0.2-79c0.1-8.9-3.1-14.8-10.9-19.1c-23.1-13-46-26.4-69-39.6 c-2.3-1.3-3.1-2.8-3-5.3c0.1-7.3,0-14.6-0.1-21.9c0-1.5-0.5-3.3,1.2-4.3c1.6-0.9,3,0.2,4.3,1c33.6,19.4,67.2,38.8,100.8,58 c3.3,1.9,4.3,4.4,4.3,8C206.8,309.3,206.8,328.5,206.7,347.8L206.7,347.8z" class="st35"/><g id="Group-30_5_" transform="translate(0.000000, 18.199719)"><defs><filter id="Adobe_OpacityMaskFilter" width="69.3" height="115.9" x="96" y="252.4" filterUnits="userSpaceOnUse"><feColorMatrix type="matrix" values="1 0 0 0 0 0 1 0 0 0 0 0 1 0 0 0 0 0 1 0"/></filter></defs><mask id="mask-4_3_" width="69.3" height="115.9" x="96" y="252.4" maskUnits="userSpaceOnUse"><g class="st28"><polygon id="path-3_3_" points="96 368.3 96 252.4 165.3 252.4 165.3 368.3" class="st2"/></g></mask><path id="Fill-28_5_" d="M165.3,329.1c0,11.7,0,23.4,0,35.1c0,4.3-1.4,5.1-5.1,2.9c-6.6-3.8-13.2-7.6-19.9-11.4 c-2-1.1-2.8-2.6-2.8-4.9c0.1-10.9,0-21.8,0.2-32.7c0.2-8.3-3.3-14.1-10.5-18.1c-9.1-5-17.9-10.3-27-15.3 c-3.1-1.7-4.4-3.7-4.2-7.4c0.4-6.8,0.1-13.7,0.1-20.6c0-1.4-0.4-3.1,1.1-4c1.6-1,3,0,4.4,0.8c20.3,11.8,40.6,23.5,61,35.2 c2,1.2,2.7,2.6,2.7,4.9C165.2,305.5,165.3,317.3,165.3,329.1" class="st60"/></g><path id="Fill-31_5_" d="M96.3,333.8c0-4,0-8.1,0-12.1c0-3,1.4-4.1,3.9-2.7c7.3,4.1,14.6,8.4,21.9,12.6 c1.4,0.8,1.8,2.2,1.7,3.8c0,7.9,0,15.7-0.1,23.6c0,3.9-1.3,4.7-4.7,2.8c-6.8-3.9-13.6-7.9-20.4-11.7c-1.8-1-2.4-2.3-2.3-4.4 C96.4,341.7,96.3,337.7,96.3,333.8" class="st38"/></g></g></g></g></g></svg>