<svg xmlns="http://www.w3.org/2000/svg" xmlns:xlink="http://www.w3.org/1999/xlink" style="enable-background:new 0 0 48 48" id="Layer_1" x="0" y="0" version="1.1" viewBox="0 0 48 48" xml:space="preserve"><style type="text/css">.st0{fill:#f6f7f8}.st1{opacity:.33}.st2{fill:#707171}.st3{fill:#7a7a7a}.st4{fill:#9f9e9e}.st5{fill:#959595}.st6{fill:#616261}.st7{fill:#515351}.st8{fill:#414242}.st9{fill:#353535}</style><switch><g><circle cx="24" cy="24" r="24" class="st0"/><g class="st1"><g id="Page-1_5_"><g id="working-state_5_" transform="translate(-109.000000, -9.000000)"><g id="buoyant_black_7_" transform="translate(109.000000, 9.000000)"><g id="angles_7_" transform="translate(0.000000, 0.734694)"><path id="Fill-16_8_" d="M27,29.9c0,2.6,0,5.1,0,7.7c0,0.3-0.1,0.6-0.4,0.7c-0.5,0.3-1,0.6-1.5,0.9 c-0.5,0.3-0.5,0.2-0.5-0.3c0-4.8,0-9.7,0-14.5c0-0.3,0-0.6-0.1-0.8c-0.1-0.4-0.4-0.6-0.8-0.8c-3-1.8-6.1-3.5-9.1-5.3 c-1.2-0.7-2.4-1.4-3.6-2.1c-0.4-0.2-0.4-0.3,0-0.5c0.6-0.3,1.1-0.7,1.7-1c0.2-0.1,0.3-0.1,0.5,0c4.4,2.6,8.9,5.2,13.3,7.8 c0.3,0.2,0.4,0.4,0.4,0.7C27,24.8,27,27.3,27,29.9" class="st2"/><path id="Fill-18_8_" d="M30.7,27.7c0,2.6,0,5.1,0,7.7c0,0.4-0.1,0.6-0.5,0.8c-0.5,0.3-1.1,0.6-1.6,0.9 c-0.3,0.1-0.4,0.1-0.4-0.2c0-0.1,0-0.2,0-0.3c0-4.8,0-9.6,0-14.4c0-0.8-0.3-1.3-1-1.7c-4.2-2.4-8.3-4.8-12.4-7.2 c-0.1-0.1-0.4-0.1-0.4-0.3c0-0.2,0.2-0.2,0.4-0.3c0.5-0.3,1.1-0.6,1.6-0.9c0.2-0.1,0.3-0.1,0.4,0c4.4,2.6,8.7,5.1,13.1,7.6 c0.5,0.3,0.6,0.6,0.6,1.1C30.7,22.8,30.7,25.3,30.7,27.7L30.7,27.7L30.7,27.7z" class="st3"/><path id="Fill-20_8_" d="M38,23.5c0,2.6,0,5.1,0,7.7c0,0.3-0.1,0.5-0.4,0.7c-0.5,0.3-1,0.6-1.5,0.9 c-0.1,0.1-0.3,0.2-0.4,0.1c-0.2-0.1-0.1-0.3-0.1-0.4c0-4.9,0-9.7,0-14.6c0-0.7-0.3-1.3-0.9-1.6c-3.9-2.3-7.8-4.6-11.7-6.8 C22.6,9.2,22.3,9,22,8.8c-0.3-0.2-0.3-0.3,0-0.4c0.6-0.4,1.2-0.7,1.8-1.1c0.2-0.1,0.3-0.1,0.4,0c4.5,2.6,9,5.2,13.5,7.8 c0.2,0.1,0.3,0.3,0.3,0.5C38,18.3,38,20.9,38,23.5" class="st4"/><path id="Fill-22_8_" d="M34.3,25.6c0,2.6,0,5.1,0,7.7c0,0.3-0.1,0.5-0.4,0.7c-0.6,0.3-1.1,0.6-1.6,0.9 c-0.3,0.2-0.4,0.1-0.4-0.2c0-4.9,0-9.7,0-14.6c0-0.8-0.3-1.4-1-1.8c-4.2-2.4-8.3-4.8-12.5-7.2c-0.4-0.2-0.4-0.4,0-0.6 c0.6-0.3,1.2-0.7,1.8-1c0.2-0.1,0.3-0.1,0.4,0c4.1,2.4,8.3,4.8,12.4,7.2c0.3,0.2,0.7,0.4,1,0.6c0.3,0.1,0.3,0.3,0.3,0.6 C34.3,20.4,34.3,23,34.3,25.6" class="st5"/><path id="Fill-24_8_" d="M23.4,31.5v7.2c0,0.1,0,0.2,0,0.2c0,0.4-0.1,0.4-0.4,0.2c-0.6-0.3-1.1-0.7-1.7-1 C21,38.1,21,37.9,21,37.7c0-3.8,0-7.5,0-11.3c0-0.8-0.3-1.4-1-1.8c-3.3-1.9-6.5-3.8-9.8-5.7c-0.1-0.1-0.2-0.2-0.2-0.3 c0-0.7,0-1.4,0-2.1c0-0.4,0.1-0.4,0.4-0.2c2.4,1.4,4.8,2.8,7.2,4.2c1.8,1.1,3.6,2.1,5.4,3.2c0.2,0.1,0.3,0.3,0.3,0.5 C23.4,26.6,23.4,29.1,23.4,31.5" class="st6"/><path id="Fill-26_7_" d="M19.7,31.6c0,1.7,0,3.4,0,5.2c0,0.5-0.1,0.5-0.5,0.3c-0.6-0.3-1.1-0.7-1.7-1 c-0.2-0.1-0.3-0.3-0.3-0.5c0-2.3,0-4.7,0-7c0-0.8-0.3-1.3-1-1.7c-2-1.2-4-2.3-6.1-3.5C10.1,23.2,10,23,10,22.8 c0-0.7,0-1.3,0-2c0-0.1,0-0.3,0.1-0.4c0.1-0.1,0.3,0,0.4,0.1c3,1.7,5.9,3.4,8.9,5.2c0.3,0.2,0.4,0.4,0.4,0.7 C19.7,28.2,19.7,29.9,19.7,31.6L19.7,31.6L19.7,31.6z" class="st7"/><g id="Group-30_7_" transform="translate(0.000000, 18.199719)"><path id="Fill-28_7_" d="M16.1,13.3c0,1,0,2.1,0,3.1c0,0.4-0.1,0.5-0.4,0.3c-0.6-0.3-1.2-0.7-1.8-1 c-0.2-0.1-0.2-0.2-0.2-0.4c0-1,0-1.9,0-2.9c0-0.7-0.3-1.3-0.9-1.6c-0.8-0.4-1.6-0.9-2.4-1.4C10.1,9.2,10,9.1,10,8.7 c0-0.6,0-1.2,0-1.8c0-0.1,0-0.3,0.1-0.4c0.1-0.1,0.3,0,0.4,0.1c1.8,1,3.6,2.1,5.4,3.1c0.2,0.1,0.2,0.2,0.2,0.4 C16.1,11.2,16.1,12.3,16.1,13.3" class="st8"/></g><path id="Fill-31_7_" d="M10,30.3c0-0.4,0-0.7,0-1.1c0-0.3,0.1-0.4,0.3-0.2c0.6,0.4,1.3,0.7,1.9,1.1 c0.1,0.1,0.2,0.2,0.2,0.3c0,0.7,0,1.4,0,2.1c0,0.3-0.1,0.4-0.4,0.2c-0.6-0.3-1.2-0.7-1.8-1c-0.2-0.1-0.2-0.2-0.2-0.4 C10,31,10,30.7,10,30.3" class="st9"/></g></g></g></g></g></g></switch></svg>