<svg xmlns="http://www.w3.org/2000/svg" xmlns:xlink="http://www.w3.org/1999/xlink" id="Layer_1" x="0" y="0" version="1.1" viewBox="0 0 120 60" xml:space="preserve" style="enable-background:new 0 0 120 60"><style type="text/css">.st0{filter:url(#Adobe_OpacityMaskFilter)}.st1,.st2{fill-rule:evenodd;clip-rule:evenodd;fill:#fff}.st2{mask:url(#mask-2_2_);fill:#001e64}.st3{filter:url(#Adobe_OpacityMaskFilter_1_)}.st4{mask:url(#mask-4_2_);fill-rule:evenodd;clip-rule:evenodd;fill:#001e64}.st5{filter:url(#Adobe_OpacityMaskFilter_2_)}.st6{mask:url(#mask-6_2_);fill-rule:evenodd;clip-rule:evenodd;fill:#001e64}.st7{filter:url(#Adobe_OpacityMaskFilter_3_)}.st8{mask:url(#mask-8_2_);fill-rule:evenodd;clip-rule:evenodd;fill:#001e64}.st9{filter:url(#Adobe_OpacityMaskFilter_4_)}.st10{mask:url(#mask-10_2_);fill-rule:evenodd;clip-rule:evenodd;fill:#001e64}.st11{filter:url(#Adobe_OpacityMaskFilter_5_)}.st12{mask:url(#mask-12_2_);fill-rule:evenodd;clip-rule:evenodd;fill:#001e64}</style><g id="Page-1"><g transform="translate(-100.000000, -4287.000000)"><g id="Footer" transform="translate(0.000000, 4214.000000)"><g id="OfferUp-wordmark---links-to-offerup.com" transform="translate(100.000000, 73.000000)"><g id="p" transform="translate(162.000000, 10.000000)"><defs><filter id="Adobe_OpacityMaskFilter" width="14.8" height="18.6" x="-73" y="13" filterUnits="userSpaceOnUse"><feColorMatrix type="matrix" values="1 0 0 0 0 0 1 0 0 0 0 0 1 0 0 0 0 0 1 0"/></filter></defs><mask id="mask-2_2_" width="14.8" height="18.6" x="-73" y="13" maskUnits="userSpaceOnUse"><g class="st0"><path id="path-1_2_" d="M-67.1,14.3c0.6-0.3,1.4-0.5,2.4-0.5c0.9,0,1.7,0.2,2.5,0.5c0.7,0.3,1.4,0.8,1.9,1.4 c0.5,0.6,0.9,1.3,1.2,2.1c0.3,0.8,0.4,1.8,0.4,2.8c0,1-0.1,2-0.4,2.8c-0.3,0.8-0.7,1.5-1.3,2.1c-0.5,0.6-1.2,1.1-1.9,1.4 c-0.7,0.3-1.6,0.5-2.4,0.5c-0.8,0-1.5-0.1-2.1-0.4c-0.6-0.2-1-0.6-1.3-0.9v4.8h-3.9V14.1h3.8v1.3 C-68.2,15-67.8,14.6-67.1,14.3z M-66.5,23.6c0.3,0.1,0.7,0.2,1.1,0.2c0.4,0,0.7-0.1,1.1-0.2c0.3-0.1,0.7-0.3,0.9-0.6 c0.3-0.3,0.5-0.6,0.6-1c0.2-0.4,0.2-0.9,0.2-1.4c0-0.5-0.1-1.1-0.2-1.5c-0.2-0.4-0.4-0.7-0.6-1c-0.3-0.3-0.6-0.5-0.9-0.6 c-0.3-0.1-0.7-0.2-1.1-0.2c-0.4,0-0.7,0.1-1.1,0.2c-0.3,0.1-0.7,0.3-0.9,0.6c-0.3,0.3-0.5,0.6-0.6,1 c-0.2,0.4-0.2,0.9-0.2,1.5c0,0.5,0.1,1,0.2,1.4c0.2,0.4,0.4,0.7,0.6,1C-67.1,23.2-66.8,23.4-66.5,23.6z" class="st1"/></g></mask><polygon id="Fill-16" points="-73 31.7 -58.1 31.7 -58.1 13 -73 13" class="st2"/></g><g id="U" transform="translate(127.000000, 0.000000)"><defs><filter id="Adobe_OpacityMaskFilter_1_" width="15.8" height="20.2" x="-54.3" y="18.3" filterUnits="userSpaceOnUse"><feColorMatrix type="matrix" values="1 0 0 0 0 0 1 0 0 0 0 0 1 0 0 0 0 0 1 0"/></filter></defs><mask id="mask-4_2_" width="15.8" height="20.2" x="-54.3" y="18.3" maskUnits="userSpaceOnUse"><g class="st3"><path id="path-3_2_" d="M-43.3,19.1v11.2c0,1.1-0.3,2-0.8,2.6c-0.6,0.6-1.3,0.8-2.3,0.8c-1,0-1.7-0.3-2.3-0.8 c-0.6-0.6-0.8-1.4-0.8-2.6V19.1h-4v11.5c0,1.2,0.2,2.2,0.6,3.1c0.4,0.9,0.9,1.6,1.5,2.2c0.6,0.6,1.4,1.1,2.3,1.4 c0.9,0.3,1.8,0.5,2.8,0.5c1,0,1.9-0.2,2.8-0.5c0.9-0.3,1.6-0.8,2.3-1.4c0.6-0.6,1.2-1.4,1.5-2.2c0.4-0.9,0.6-1.9,0.6-3.1 V19.1H-43.3z" class="st1"/></g></mask><polygon id="Fill-13" points="-54.3 38.5 -38.5 38.5 -38.5 18.3 -54.3 18.3" class="st4"/></g><g id="r" transform="translate(108.000000, 10.000000)"><defs><filter id="Adobe_OpacityMaskFilter_2_" width="9.8" height="14.9" x="-45.1" y="13" filterUnits="userSpaceOnUse"><feColorMatrix type="matrix" values="1 0 0 0 0 0 1 0 0 0 0 0 1 0 0 0 0 0 1 0"/></filter></defs><mask id="mask-6_2_" width="9.8" height="14.9" x="-45.1" y="13" maskUnits="userSpaceOnUse"><g class="st5"><path id="path-5_2_" d="M-38.1,13.8c-0.3,0-0.6,0.1-1,0.2c-0.3,0.1-1.2,0.6-1.5,1.3v-1.5h-3.9v13.4h4V21 c0-0.6,0.1-1.2,0.2-1.6c0.2-0.4,0.4-0.8,0.7-1.1c0.3-0.3,0.6-0.5,1-0.6c0.4-0.1,0.7-0.2,1.2-0.2c0.4,0,1,0,1.2,0.1l0.1-3.6 c-0.3-0.1-0.7-0.2-1.1-0.2C-37.4,13.8-37.8,13.8-38.1,13.8z" class="st1"/></g></mask><polygon id="Fill-10" points="-45.1 27.9 -35.3 27.9 -35.3 13 -45.1 13" class="st6"/></g><g id="e" transform="translate(76.000000, 10.000000)"><defs><filter id="Adobe_OpacityMaskFilter_3_" width="13.9" height="15.1" x="-26.6" y="13" filterUnits="userSpaceOnUse"><feColorMatrix type="matrix" values="1 0 0 0 0 0 1 0 0 0 0 0 1 0 0 0 0 0 1 0"/></filter></defs><mask id="mask-8_2_" width="13.9" height="15.1" x="-26.6" y="13" maskUnits="userSpaceOnUse"><g class="st7"><path id="path-7_2_" d="M-22,14.2c0.8-0.3,1.5-0.5,2.3-0.5c1.9,0,3.5,0.6,4.6,1.7c1.1,1.2,1.7,2.8,1.7,4.9 c0,0.3,0,0.5,0,0.8c0,0.3,0,0.4-0.1,0.4h-8.7c0,0.4,0.1,0.7,0.3,1c0.2,0.3,0.4,0.6,0.6,0.8c0.3,0.2,0.6,0.4,0.9,0.5 c0.3,0.1,0.7,0.2,1.1,0.2c0.7,0,1.2-0.2,1.6-0.5c0.4-0.3,0.7-0.7,0.9-1.2l3.2,0.9c-0.2,0.6-0.4,1.1-0.7,1.6 c-0.3,0.5-0.7,0.9-1.2,1.3c-0.5,0.4-1,0.7-1.7,0.9c-0.6,0.2-1.4,0.3-2.1,0.3c-0.9,0-1.7-0.2-2.5-0.5 c-0.8-0.3-1.5-0.8-2.1-1.3c-0.6-0.6-1.1-1.3-1.4-2.2c-0.4-0.8-0.5-1.8-0.5-2.9c0-1,0.2-2,0.5-2.8c0.3-0.8,0.8-1.6,1.4-2.1 C-23.5,15-22.8,14.5-22,14.2z M-21.9,18.2c-0.1,0.3-0.2,0.5-0.2,0.8h5c0-0.2-0.1-0.5-0.2-0.8c-0.1-0.3-0.2-0.5-0.4-0.7 c-0.2-0.2-0.5-0.4-0.8-0.5c-0.3-0.1-0.7-0.2-1.1-0.2c-0.4,0-0.8,0.1-1.1,0.2c-0.3,0.1-0.6,0.3-0.8,0.5 C-21.6,17.7-21.8,17.9-21.9,18.2z" class="st1"/></g></mask><polygon id="Fill-7" points="-26.6 28.1 -12.8 28.1 -12.8 13 -26.6 13" class="st8"/></g><g id="ff" transform="translate(33.000000, 0.000000)"><defs><filter id="Adobe_OpacityMaskFilter_4_" width="22" height="20" x="-3.7" y="18.3" filterUnits="userSpaceOnUse"><feColorMatrix type="matrix" values="1 0 0 0 0 0 1 0 0 0 0 0 1 0 0 0 0 0 1 0"/></filter></defs><mask id="mask-10_2_" width="22" height="20" x="-3.7" y="18.3" maskUnits="userSpaceOnUse"><g class="st9"><path id="path-9_2_" d="M13.2,19.5c-0.6,0.2-1.1,0.6-1.6,1c-0.4,0.4-0.8,1-1,1.6c-0.2,0.6-0.3,1.3-0.3,2.1v1.1 H5.7v-1.1c0-0.3,0.1-0.6,0.2-0.8C6,23.1,6.1,23,6.3,22.8c0.2-0.1,0.4-0.2,0.6-0.3c0.2,0,0.4-0.1,0.6-0.1c0.3,0,0.5,0,0.7,0 c0.2,0,0.3,0.1,0.4,0.1l0.2-3.3c-0.2-0.1-0.7-0.2-1.1-0.2c-0.4-0.1-0.7-0.1-1.1-0.1c-0.8,0-1.5,0.1-2.1,0.4 C4,19.7,3.4,20,3,20.5c-0.4,0.4-0.8,1-1,1.6c-0.2,0.6-0.3,1.3-0.3,2.1v1.1H-3v3.4h4.7v8.9h4v-8.9h4.6v8.9h4v-8.9h2.1l0.8-3.4 h-2.9v-1.1c0-0.3,0.1-0.6,0.2-0.8c0.1-0.2,0.3-0.4,0.4-0.5c0.2-0.1,0.4-0.2,0.6-0.3c0.2,0,0.4-0.1,0.6-0.1c0.3,0,0.5,0,0.7,0 c0.2,0,0.3,0.1,0.4,0.1l0.2-3.3c-0.2-0.1-0.7-0.2-1.1-0.2c-0.4,0-0.7-0.1-1.1-0.1C14.5,19.1,13.8,19.2,13.2,19.5z" class="st1"/></g></mask><polygon id="Fill-4" points="-3.7 38.3 18.2 38.3 18.2 18.3 -3.7 18.3" class="st10"/></g><g id="O"><defs><filter id="Adobe_OpacityMaskFilter_5_" width="19.9" height="20" x="13.9" y="18.3" filterUnits="userSpaceOnUse"><feColorMatrix type="matrix" values="1 0 0 0 0 0 1 0 0 0 0 0 1 0 0 0 0 0 1 0"/></filter></defs><mask id="mask-12_2_" width="19.9" height="20" x="13.9" y="18.3" maskUnits="userSpaceOnUse"><g class="st11"><path id="path-11_2_" d="M20.3,19.7c1.1-0.4,2.3-0.7,3.6-0.7c1.3,0,2.4,0.2,3.5,0.7c1.1,0.4,2.1,1.1,2.9,1.9 c0.8,0.8,1.5,1.8,2,2.9c0.5,1.1,0.7,2.4,0.7,3.8s-0.2,2.7-0.7,3.8c-0.5,1.1-1.2,2.1-2,2.9c-0.8,0.8-1.8,1.4-2.9,1.9 c-1.1,0.4-2.3,0.7-3.5,0.7c-1.3,0-2.4-0.2-3.6-0.7c-1.1-0.4-2.1-1.1-2.9-1.9c-0.8-0.8-1.5-1.8-2-2.9 c-0.5-1.1-0.7-2.4-0.7-3.8s0.2-2.7,0.7-3.8c0.5-1.1,1.2-2.1,2-2.9S19.2,20.2,20.3,19.7z M22.1,33.2c0.6,0.2,1.2,0.3,1.8,0.3 c0.6,0,1.2-0.1,1.8-0.3c0.6-0.2,1.1-0.5,1.6-0.9c0.5-0.4,0.8-1,1.1-1.6c0.3-0.6,0.4-1.4,0.4-2.3c0-0.9-0.1-1.7-0.4-2.3 c-0.3-0.7-0.7-1.2-1.1-1.6c-0.5-0.4-1-0.7-1.6-0.9c-0.6-0.2-1.2-0.3-1.8-0.3c-0.6,0-1.2,0.1-1.8,0.3 c-0.6,0.2-1.1,0.5-1.6,0.9c-0.5,0.4-0.9,1-1.1,1.6c-0.3,0.7-0.4,1.4-0.4,2.3c0,0.9,0.1,1.7,0.4,2.3c0.3,0.6,0.7,1.2,1.1,1.6 C21,32.7,21.5,33,22.1,33.2z" class="st1"/></g></mask><polygon id="Fill-1" points="13.9 38.4 33.8 38.4 33.8 18.3 13.9 18.3" class="st12"/></g></g></g></g></g></svg>